<svg width="24" height="25" viewBox="0 0 24 25" fill="none" xmlns="http://www.w3.org/2000/svg">
<g filter="url(#filter0_d_1_114)">
<path d="M18.1891 6.41802L14.2219 5.84146L12.4484 2.24615C12.4 2.14771 12.3203 2.06802 12.2219 2.01959C11.975 1.89771 11.675 1.99927 11.5516 2.24615L9.77812 5.84146L5.81094 6.41802C5.70156 6.43365 5.60156 6.48521 5.525 6.56334C5.43244 6.65847 5.38143 6.78646 5.38319 6.91918C5.38495 7.0519 5.43933 7.1785 5.53437 7.27115L8.40469 10.0696L7.72656 14.0211C7.71066 14.1131 7.72083 14.2076 7.75592 14.294C7.79102 14.3805 7.84963 14.4554 7.92511 14.5102C8.00059 14.565 8.08992 14.5976 8.18297 14.6042C8.27602 14.6108 8.36907 14.5913 8.45156 14.5477L12 12.6821L15.5484 14.5477C15.6453 14.5993 15.7578 14.6165 15.8656 14.5977C16.1375 14.5508 16.3203 14.293 16.2734 14.0211L15.5953 10.0696L18.4656 7.27115C18.5437 7.19459 18.5953 7.09459 18.6109 6.98521C18.6531 6.71177 18.4625 6.45865 18.1891 6.41802Z" fill="#FEA250"/>
</g>
<defs>
<filter id="filter0_d_1_114" x="0" y="0.900879" width="24" height="24" filterUnits="userSpaceOnUse" color-interpolation-filters="sRGB">
<feFlood flood-opacity="0" result="BackgroundImageFix"/>
<feColorMatrix in="SourceAlpha" type="matrix" values="0 0 0 0 0 0 0 0 0 0 0 0 0 0 0 0 0 0 127 0" result="hardAlpha"/>
<feOffset dy="4"/>
<feGaussianBlur stdDeviation="2"/>
<feComposite in2="hardAlpha" operator="out"/>
<feColorMatrix type="matrix" values="0 0 0 0 0 0 0 0 0 0 0 0 0 0 0 0 0 0 0.25 0"/>
<feBlend mode="normal" in2="BackgroundImageFix" result="effect1_dropShadow_1_114"/>
<feBlend mode="normal" in="SourceGraphic" in2="effect1_dropShadow_1_114" result="shape"/>
</filter>
</defs>
</svg>
